<?xml version="1.0" encoding="utf-8"?>
<!-- Generator: Adobe Illustrator 24.1.3, SVG Export Plug-In . SVG Version: 6.00 Build 0)  -->
<svg version="1.1" id="Layer_1" xmlns="http://www.w3.org/2000/svg" xmlns:xlink="http://www.w3.org/1999/xlink" x="0px" y="0px"
	 viewBox="0 0 16 16" style="enable-background:new 0 0 16 16;" xml:space="preserve">
<style type="text/css">
	.st0{fill:#E6E6E6;}
	.st1{enable-background:new    ;}
	.st2{fill:#787878;}
</style>
<g id="Group_26735">
	<circle id="Ellipse_58-2" class="st0" cx="8" cy="8" r="8"/>
	<g id="_">
		<g class="st1">
			<path class="st2" d="M6.9,10.4V10c0-0.4,0.1-0.8,0.2-1.1C7.3,8.6,7.5,8.3,7.9,8c0.5-0.4,0.8-0.7,0.9-0.9C8.9,6.9,9,6.7,9,6.4
				S8.9,5.8,8.7,5.6S8.2,5.3,7.8,5.3s-0.7,0.1-1,0.2C6.5,5.6,6.2,5.7,5.9,5.9l-0.5-1C6.2,4.5,7,4.2,7.9,4.2c0.8,0,1.4,0.2,1.8,0.6
				c0.4,0.4,0.7,0.9,0.7,1.6c0,0.3,0,0.6-0.1,0.8s-0.2,0.4-0.4,0.7S9.4,8.4,9,8.7S8.4,9.2,8.3,9.4s-0.2,0.4-0.2,0.8v0.3H6.9
				C6.9,10.5,6.9,10.4,6.9,10.4z M6.7,12.3c0-0.6,0.3-0.9,0.9-0.9c0.3,0,0.5,0.1,0.6,0.2c0.1,0.1,0.2,0.4,0.2,0.7
				c0,0.3-0.1,0.5-0.2,0.7s-0.4,0.2-0.6,0.2S7.1,13.1,7,13S6.7,12.6,6.7,12.3z"/>
		</g>
	</g>
</g>
</svg>
