<svg xmlns="http://www.w3.org/2000/svg" width="32" height="32" viewBox="0 0 32 32">
  <g id="menu_tracuu" transform="translate(-139 -1725)">
    <rect id="Rectangle_17546" data-name="Rectangle 17546" width="32" height="32" transform="translate(139 1725)" fill="none"/>
    <g id="Group_49186" data-name="Group 49186" transform="translate(207 -1055.444)">
      <g id="Group_22388" data-name="Group 22388" transform="translate(-64 2799.028)">
        <g id="Group_22387" data-name="Group 22387" transform="translate(0 0)">
          <path id="Path_59121" data-name="Path 59121" d="M9.019,14.264l-.628-.628a.425.425,0,0,0-.6,0L1.669,19.757a1.764,1.764,0,0,0,2.494,2.494l6.121-6.121a.425.425,0,0,0,0-.6l-.664-.664L10.989,13.5l-.586-.59ZM3.562,21.651A.914.914,0,1,1,2.27,20.358L8.09,14.538,9.382,15.83Z" transform="translate(-1.153 -12.906)" fill="#fff" stroke="#fff" stroke-width="0.5"/>
        </g>
      </g>
      <g id="Ellipse_362" data-name="Ellipse 362" transform="translate(-57.778 2784)" fill="none" stroke="#fff" stroke-width="1.5">
        <circle cx="8.889" cy="8.889" r="8.889" stroke="none"/>
        <circle cx="8.889" cy="8.889" r="8.139" fill="none"/>
      </g>
      <path id="Path_61316" data-name="Path 61316" d="M-613.9,850.258a5.505,5.505,0,0,1,.639-4.173,5.507,5.507,0,0,1,4.811-2.643" transform="translate(560.062 1944.559)" fill="none" stroke="#0dd469" stroke-linecap="round" stroke-miterlimit="10" stroke-width="1.5"/>
    </g>
  </g>
</svg>
